<svg width="512" height="512" viewBox="0 0 512 512" fill="none" xmlns="http://www.w3.org/2000/svg">
<mask id="mask0_71_72" style="mask-type:alpha" maskUnits="userSpaceOnUse" x="0" y="0" width="512" height="512">
<circle cx="256" cy="256" r="256" fill="#D9D9D9"/>
</mask>
<g mask="url(#mask0_71_72)">
<rect width="512" height="512" fill="#5B5B5B"/>
<path d="M186 335.545C186 343.524 181.821 350 176.669 350H167.331C162.179 350 158 343.524 158 335.545V205.455C158 197.476 162.179 191 167.331 191H176.662C181.821 191 186 197.476 186 205.455V335.545ZM354 335.545C354 343.524 349.821 350 344.669 350H335.331C330.179 350 326 343.524 326 335.545V205.455C326 197.476 330.179 191 335.331 191H344.669C349.821 191 354 197.476 354 205.455V335.545ZM268.831 335.545C268.831 343.524 264.651 350 259.5 350H250.169C245.01 350 240.831 343.524 240.831 335.545V205.455C240.831 197.476 245.01 191 250.161 191H259.493C264.651 191 268.831 197.476 268.831 205.455V335.545Z" fill="#D8D8D8"/>
<path d="M381 351C381 358.728 376.333 365 370.583 365H141.417C135.66 365 131 358.728 131 351C131 343.272 135.66 337 141.417 337H370.583C376.333 337 381 343.272 381 351Z" fill="#EDEDED"/>
<path d="M144.498 192.89C144.498 185.705 151.55 182.827 151.55 182.827L255.415 134.045L360.275 182.827C360.275 182.827 367.502 184.437 367.502 192.932V196.765H144.498V192.89Z" fill="#D8D8D8"/>
<path d="M367.502 196.764C367.502 200.611 364.387 203.733 360.533 203.733H151.466C147.619 203.733 144.498 200.611 144.498 196.764C144.498 192.917 147.619 189.795 151.466 189.795L360.533 189.837C364.387 189.837 367.502 192.917 367.502 196.764Z" fill="#D8D8D8"/>
</g>
</svg>
