<svg width="512" height="512" viewBox="0 0 512 512" fill="none" xmlns="http://www.w3.org/2000/svg">
<mask id="mask0_71_71" style="mask-type:alpha" maskUnits="userSpaceOnUse" x="0" y="0" width="512" height="512">
<circle cx="256" cy="256" r="256" fill="#D9D9D9"/>
</mask>
<g mask="url(#mask0_71_71)">
<rect width="512" height="512" fill="#FF5E5E"/>
<path d="M196.651 213.333C193.543 222.715 191.973 232.538 192 242.421C192 285.269 220.651 320 256 320C291.349 320 320 285.269 320 242.421C320.027 232.538 318.456 222.715 315.349 213.333" stroke="#FFF47E" stroke-width="21.3333" stroke-linecap="round" stroke-linejoin="round"/>
<path d="M282.667 352C282.667 352 275.392 320 256 320C236.608 320 229.333 352 229.333 352" stroke="#FFF47E" stroke-width="21.3333" stroke-linecap="round" stroke-linejoin="round"/>
<path d="M325.547 183.787C328.661 201.557 314.667 213.333 314.667 213.333C314.667 213.333 297.568 207.328 294.453 189.547C291.339 171.776 305.333 160 305.333 160C305.333 160 322.432 166.005 325.547 183.787Z" stroke="#FFF47E" stroke-width="21.3333" stroke-linecap="round" stroke-linejoin="round"/>
<path d="M353.003 257.493C339.339 270.997 320.832 265.6 320.832 265.6C320.832 265.6 315.989 246.698 329.664 233.173C343.317 219.669 361.835 225.066 361.835 225.066C361.835 225.066 366.677 243.968 353.003 257.493Z" stroke="#FFF47E" stroke-width="21.3333" stroke-linecap="round" stroke-linejoin="round"/>
<path d="M317.162 328.81C301.162 322.677 298.667 305.45 298.667 305.45C298.667 305.45 312.181 294.378 328.181 300.522C344.181 306.655 346.667 323.882 346.667 323.882C346.667 323.882 333.162 334.954 317.162 328.81Z" stroke="#FFF47E" stroke-width="21.3333" stroke-linecap="round" stroke-linejoin="round"/>
<path d="M194.848 328.81C210.848 322.677 213.333 305.45 213.333 305.45C213.333 305.45 199.819 294.378 183.819 300.522C167.819 306.655 165.333 323.882 165.333 323.882C165.333 323.882 178.848 334.954 194.848 328.81Z" stroke="#FFF47E" stroke-width="21.3333" stroke-linecap="round" stroke-linejoin="round"/>
<path d="M158.997 257.494C172.661 270.998 191.168 265.6 191.168 265.6C191.168 265.6 196.011 246.699 182.336 233.174C168.672 219.68 150.165 225.067 150.165 225.067C150.165 225.067 145.323 243.968 158.997 257.494Z" stroke="#FFF47E" stroke-width="21.3333" stroke-linecap="round" stroke-linejoin="round"/>
<path d="M186.453 183.787C183.339 201.557 197.333 213.333 197.333 213.333C197.333 213.333 214.432 207.328 217.547 189.547C220.661 171.776 206.667 160 206.667 160C206.667 160 189.568 166.005 186.453 183.787Z" stroke="#FFF47E" stroke-width="21.3333" stroke-linecap="round" stroke-linejoin="round"/>
</g>
</svg>
