<svg width="512" height="512" viewBox="0 0 512 512" fill="none" xmlns="http://www.w3.org/2000/svg">
<mask id="mask0_71_67" style="mask-type:alpha" maskUnits="userSpaceOnUse" x="0" y="0" width="512" height="512">
<circle cx="256" cy="256" r="256" fill="#D9D9D9"/>
</mask>
<g mask="url(#mask0_71_67)">
<rect width="512" height="512" fill="#5B5B5B"/>
<path d="M270.453 300.077H239.429C239.346 295.597 239.304 292.9 239.304 291.905C239.304 281.865 240.965 273.61 244.288 267.138C247.611 260.625 254.297 253.366 264.265 245.235C274.232 237.146 280.213 231.836 282.123 229.305C285.155 225.364 286.65 220.967 286.65 216.196C286.65 209.558 283.992 203.875 278.676 199.105C273.36 194.375 266.217 192.011 257.205 192.011C248.524 192.011 241.256 194.5 235.401 199.436C229.586 204.373 225.557 211.923 223.356 222.045L192 218.146C192.872 203.627 199.06 191.306 210.523 181.184C222.027 171.062 237.061 166 255.751 166C275.354 166 290.97 171.144 302.599 181.391C314.186 191.637 320 203.543 320 217.192C320 224.7 317.841 231.836 313.605 238.556C309.327 245.277 300.231 254.445 286.277 266.019C279.05 272.033 274.564 276.846 272.82 280.497C271.076 284.147 270.287 290.66 270.453 300.077ZM239.429 346V311.859H273.609V346H239.429Z" fill="white"/>
</g>
</svg>
